<svg xmlns="http://www.w3.org/2000/svg" width="32" height="32" viewBox="0 0 32 32">
  <!-- Map background -->
  <rect width="32" height="32" rx="7" fill="#E8F0E8"/>
  <!-- Land blocks -->
  <rect x="0" y="0" width="32" height="32" rx="7" fill="#D4E4D4"/>
  <rect x="2" y="6" width="28" height="8" rx="1" fill="#C8D8C8" opacity="0.5"/>
  <rect x="2" y="18" width="28" height="10" rx="1" fill="#C8D8C8" opacity="0.5"/>
  <!-- Grid roads -->
  <line x1="0" y1="14" x2="32" y2="14" stroke="white" stroke-width="1.5"/>
  <line x1="0" y1="28" x2="32" y2="28" stroke="white" stroke-width="1"/>
  <line x1="10" y1="0" x2="10" y2="32" stroke="white" stroke-width="1.2"/>
  <line x1="22" y1="0" x2="22" y2="32" stroke="white" stroke-width="1.2"/>
  <line x1="0" y1="6" x2="32" y2="6" stroke="white" stroke-width="0.7" opacity="0.6"/>
  <line x1="0" y1="21" x2="32" y2="21" stroke="white" stroke-width="0.7" opacity="0.6"/>
  <line x1="16" y1="0" x2="16" y2="32" stroke="white" stroke-width="0.7" opacity="0.6"/>
  <line x1="5" y1="0" x2="5" y2="32" stroke="white" stroke-width="0.5" opacity="0.3"/>
  <line x1="27" y1="0" x2="27" y2="32" stroke="white" stroke-width="0.5" opacity="0.3"/>
  <!-- Route path -->
  <path d="M7 9 L12 9 Q16 9 16 13 L16 19 Q16 23 20 23 L25 23" fill="none" stroke="#2563EB" stroke-width="2.8" stroke-linecap="round" stroke-linejoin="round"/>
  <!-- Point A -->
  <circle cx="7" cy="9" r="3.2" fill="#16A34A"/>
  <circle cx="7" cy="9" r="1.3" fill="white"/>
  <!-- Point B -->
  <circle cx="25" cy="23" r="3.2" fill="#DC2626"/>
  <circle cx="25" cy="23" r="1.3" fill="white"/>
</svg>
